<svg xmlns="http://www.w3.org/2000/svg" width="269.505" height="60">
  <defs>
    <clipPath id="a" clipPathUnits="userSpaceOnUse">
      <path
        d="M319.819 168.804V99.589c0-1.051 1.022-2.105 2.451-2.105 1.43 0 2.553 1.054 2.553 2.105v26.136c0 8.231 6.638 13.114 13.173 13.114 7.452 0 13.681-6.509 13.681-13.114V99.589c0-1.433 1.227-2.105 2.451-2.105 1.227 0 2.554.672 2.554 2.105v26.136c0 9.667-8.372 17.518-18.278 17.518-6.842 0-11.438-3.541-13.581-7.276v32.837c0 1.148-1.123 2.01-2.553 2.01-1.429 0-2.451-.862-2.451-2.01m45.991-2.202v-65.765c0-1.632 2.145-3.353 5.208-3.353s5.514 1.721 5.514 3.353v11.964l7.453 6.318 15.013-20.774a3.481 3.481 0 0 1 2.857-1.437c2.553 0 6.026 2.681 6.026 5.077 0 .477-.204 1.149-.611 1.721l-16.033 21.635 13.171 11.01c.614.574.919 1.339.919 2.105 0 2.298-2.856 4.787-5.207 4.787-.817 0-1.632-.287-2.245-.861l-21.343-18.381v42.601c0 1.914-2.451 3.254-5.514 3.254s-5.208-1.34-5.208-3.254m45.238-7.084c0-2.777 2.757-5.266 6.228-5.266 3.473 0 6.229 2.489 6.229 5.266 0 2.872-2.756 5.265-6.229 5.265-3.471 0-6.228-2.393-6.228-5.265m-157.517 3.062v-51.404c0-9.574 5.413-13.692 15.524-13.692h2.552c1.428 0 2.349 1.054 2.349 2.203 0 1.243-.921 2.198-2.349 2.198h-2.552c-7.763 0-10.519 2.491-10.519 9.291v27.375h13.583c1.019 0 1.937.958 1.937 2.012 0 1.148-.918 2.105-1.937 2.105h-13.583v19.912c0 1.15-1.224 2.011-2.554 2.011-1.122 0-2.451-.861-2.451-2.011m179.573-2.201v-47.961c0-10.433 6.229-14.934 17.87-14.934h3.575c3.063 0 4.596 2.105 4.596 4.307 0 2.203-1.533 4.307-4.596 4.307h-3.575c-5.308 0-7.148 1.726-7.148 6.32v22.974h12.46c1.837 0 2.959 1.82 2.959 3.734 0 1.915-1.122 3.735-2.959 3.735h-12.46v17.518c0 1.915-2.756 3.254-5.41 3.254-2.552 0-5.312-1.339-5.312-3.254m-154.291-34.847v-10.911c0-10.149 6.125-17.713 19.196-17.713 8.885 0 14.399 3.639 14.399 5.938 0 1.054-1.021 2.297-2.248 2.297-1.941 0-3.675-3.829-11.946-3.829-9.499 0-14.397 5.072-14.397 13.307v10.911c0 8.233 5.001 13.307 14.296 13.307 7.759 0 9.596-3.733 11.334-3.733 1.327 0 2.346 1.149 2.346 2.297 0 2.201-5.41 5.84-13.784 5.84-13.171 0-19.196-7.754-19.196-17.711m-66.607 13.307c0-.956.818-2.584 2.248-2.584 1.429 0 4.185 2.681 10.721 2.681 9.293 0 12.868-7.372 12.868-14.073v-2.49h-5.515c-14.195 0-23.792-2.585-23.792-12.829 0-8.614 6.228-12.636 14.091-12.636 6.739 0 11.844 3.546 15.317 7.276v-4.595c0-1.151 1.123-2.105 2.45-2.105 1.431 0 2.453.954 2.453 2.105v25.274c0 9.476-4.596 18.38-17.667 18.38-6.331 0-13.174-2.298-13.174-4.404m1.531-29.102c0 7.949 9.294 8.807 19.301 8.807h5.005v-7.086c0-4.211-7.353-10.338-14.502-10.338-5.513 0-9.804 2.68-9.804 8.617m-42.516 26.23v4.787c0 1.148-1.124 1.914-2.451 1.914-1.429 0-2.45-.766-2.45-1.914V77.095c0-1.055 1.021-2.11 2.45-2.11 1.43 0 2.552 1.055 2.552 2.11v27.089c2.247-3.925 7.558-7.276 13.786-7.276 9.701 0 18.176 8.424 18.176 17.713v11.104c0 9.667-8.373 17.518-18.381 17.518-6.84 0-11.435-3.541-13.682-7.276m.101-24.603v14.361c0 8.231 6.639 13.114 13.174 13.114 7.556 0 13.787-6.509 13.787-13.114v-11.104c0-6.797-6.334-13.307-13.583-13.307-7.658 0-13.378 6.987-13.378 10.05m240.644 28.24v-38.767c0-1.632 2.247-3.353 5.31-3.353 3.064 0 5.411 1.721 5.411 3.353v38.767c0 1.916-2.347 3.257-5.411 3.257-3.063 0-5.31-1.341-5.31-3.257" />
    </clipPath>
    <clipPath id="b" clipPathUnits="userSpaceOnUse">
      <path d="M0 259.2h460.8V0H0Z" />
    </clipPath>
  </defs>
  <g clip-path="url(#a)" transform="matrix(.5906 0 0 -.5906 -1.725 100.883)">
    <path d="M157.252 121.883v53.444h306.725V68.438H157.252z" />
  </g>
  <g clip-path="url(#b)" transform="matrix(.5906 0 0 -.5906 -1.725 100.883)">
    <path fill-rule="evenodd"
      d="M86.83 129.185V102.05H63.676v27.134h-8.493l20.07 26.155 20.068-26.155Zm55.904-1.664c-8.758 25.895-24.602 44.28-36.629 43.254 0 0-4.488-.104-6.58-.685-7.718-2.14-14.632-7.31-23.813-7.753-9.18.444-16.093 5.614-23.81 7.753-2.093.58-6.582.685-6.582.685-12.027 1.026-27.87-17.36-36.629-43.254-9.388-27.748-7.078-53.6 5.163-57.74 3.483-1.176 7.394-.453 11.424 1.806l-.002-.006.017.016c1.585.893 3.19 2.037 4.792 3.389 0 0 10.8 8.614 13.161 10.746 6.953 6.278 22.714 4.964 30.01 4.964h4.916c7.293 0 23.055 1.314 30.01-4.964 2.357-2.132 13.16-10.746 13.16-10.746 1.603-1.352 3.205-2.496 4.79-3.39l.018-.015-.002.006c4.03-2.26 7.94-2.982 11.424-1.805 12.24 4.14 14.551 29.99 5.162 57.739" />
  </g>
</svg>